# xmcd CD database file
#
# Track frame offsets:
#	150
#	17821
#	25377
#	39239
#	53468
#	63923
#	78436
#	93782
#	107774
#	117625
#	137124
#	145306
#	156358
#	169213
#	178550
#	188946
#	200406
#	212832
#	227621
#	237900
#	249268
#	259357
#	273581
#	284870
#	296803
#	309109
#	320098
#	329852
#
# Disc length: 4549 seconds
#
# Revision: 0
# Processed by: cddbd v1.5.2PL0 Copyright (c) Steve Scherf et al.
# Submitted via: CDex 1.51
#
DISCID=ab11c31c
DTITLE=Marty Robbins - Gunfighter Ballads
DYEAR=2010
DGENRE=Country
TTITLE0=Big Iron
TTITLE1=A Hundred and Sixty Acres
TTITLE2=They're Hanging Me Tonight
TTITLE3=Cool Water
TTITLE4=Billy The Kid
TTITLE5=Utah Carol
TTITLE6=The Strawberry Roan
TTITLE7=The Master's Call
TTITLE8=Running Gun
TTITLE9=El Paso
TTITLE10=In the Valley
TTITLE11=The Little Green Valley
TTITLE12=The Hanging Tree
TTITLE13=Saddle Tramp
TTITLE14=I'll Step Aside
TTITLE15=Lovesick Blues
TTITLE16=I'm So Lonesome I Could Cry
TTITLE17=Rose Of Ol' Pawnee
TTITLE18=I Hang My Head And Cry
TTITLE19=You Only Want Me When You're Lonely
TTITLE20=All The World Is Lonely Now
TTITLE21=Have I Told You Lately That I Love You
TTITLE22=A White Sports Coat (And A Pink Carnation)
TTITLE23=I'll Go On Alone
TTITLE24=I Couldn't Keep From Crying
TTITLE25=Singing The Blues
TTITLE26=Knee Deep In The Blues
TTITLE27=The Story Of My Life
EXTD=YEAR: 2010
EXTT0=
EXTT1=
EXTT2=
EXTT3=
EXTT4=
EXTT5=
EXTT6=
EXTT7=
EXTT8=
EXTT9=
EXTT10=
EXTT11=
EXTT12=
EXTT13=
EXTT14=
EXTT15=
EXTT16=
EXTT17=
EXTT18=
EXTT19=
EXTT20=
EXTT21=
EXTT22=
EXTT23=
EXTT24=
EXTT25=
EXTT26=
EXTT27=
PLAYORDER=
